# xmcd
#
# Track frame offsets:
#	150
#	16407
#	41541
#	54141
#	71089
#	90473
#	109866
#	118369
#	137528
#	153712
#	169041
#	196337
#
# Disc length: 3223 seconds
# Revision: 0
# Processed by: cddbd v1.5.2PL0 Copyright (c) Steve Scherf et al.
# Submitted via: dBpowerAMP V12.0
#
DISCID=9f0c950c
DTITLE=Simon Campbell - ThirtySix
DYEAR=2011
DGENRE=Blues
TTITLE0=I Like It Like That
TTITLE1=Preacher Of Love
TTITLE2=Hot As Hell
TTITLE3=Misgivings
TTITLE4=Still Got Time To Be My Babe
TTITLE5=Brother
TTITLE6=As Beautiful As You
TTITLE7=Give Me A Reason
TTITLE8=Island Of Rust
TTITLE9=Let It Roll
TTITLE10=Princess
TTITLE11=All I Have Left
EXTD=
EXTT0=
EXTT1=
EXTT2=
EXTT3=
EXTT4=
EXTT5=
EXTT6=
EXTT7=
EXTT8=
EXTT9=
EXTT10=
EXTT11=
PLAYORDER=
